<svg width="48" height="48" viewBox="0 0 48 48" fill="none" xmlns="http://www.w3.org/2000/svg">
<rect width="48" height="48" fill="white"/>
<path d="M21.3649 30.1837C21.0331 30.6125 20.6342 30.947 20.1744 31.2083C19.693 31.482 19.1837 31.6835 18.6269 31.7268C18.2732 31.7544 17.9129 31.7935 17.5632 31.7561C16.8325 31.678 16.1562 31.426 15.5552 30.9903C14.5892 30.2901 14.0002 29.3553 13.8154 28.1753C13.7729 27.9041 13.7561 27.6264 13.7556 27.3516C13.7511 24.8984 13.753 22.4452 13.7529 19.992C13.7529 19.7293 13.7233 19.7005 13.4574 19.7002C12.2841 19.6992 11.1104 19.6768 9.93784 19.7049C9.20909 19.7224 8.51113 19.925 7.8753 20.2934C7.59278 20.4571 7.312 20.6353 7.0664 20.8484C6.71226 21.1557 6.38861 21.4986 6.14178 21.9044C6.10123 21.9711 6.05214 22.0326 5.99808 22.1091C5.7131 21.9434 5.43733 21.7894 5.16863 21.6238C5.05888 21.5562 5.04158 21.4128 5.11388 21.3C5.376 20.891 5.69024 20.5278 6.03287 20.1818C6.52842 19.6815 7.10879 19.3086 7.73984 19.0246C8.13566 18.8464 8.56689 18.7347 8.99253 18.639C9.31235 18.5671 9.64822 18.5452 9.97751 18.5404C11.5168 18.5182 13.0562 18.5092 14.5956 18.4968C14.8536 18.4948 14.9371 18.5818 14.9371 18.8421C14.9372 21.7219 14.9398 24.6017 14.9356 27.4815C14.9343 28.3331 15.2427 29.0571 15.8195 29.6659C16.2851 30.1573 16.8715 30.453 17.5358 30.5612C18.3955 30.7012 19.1887 30.494 19.8832 29.9758C20.5746 29.4599 20.9758 28.755 21.1039 27.9006C21.1298 27.728 21.1389 27.5515 21.139 27.3768C21.1414 24.5344 21.1411 21.6919 21.1416 18.8494C21.1416 18.5279 21.1537 18.507 21.4828 18.5025C22.5972 18.4871 23.712 18.4914 24.8265 18.4999C25.104 18.502 25.1528 18.6306 25.1473 18.8162C25.1387 19.1033 25.145 19.3908 25.145 19.7002C25.0722 19.7002 25.0104 19.7002 24.9486 19.7002C24.1593 19.7003 23.37 19.7 22.5808 19.7005C22.3567 19.7006 22.3011 19.757 22.3011 19.9849C22.3008 22.5074 22.3033 25.0299 22.2994 27.5524C22.2982 28.3439 22.0839 29.0794 21.6661 29.7526C21.5759 29.8981 21.47 30.034 21.3649 30.1837Z" fill="#005589"/>
<path d="M12.048 23.2425C12.0479 22.6665 12.0453 22.1066 12.05 21.5467C12.051 21.4319 12.0223 21.387 11.8989 21.3881C11.2803 21.3935 10.6609 21.3706 10.0433 21.3957C9.34661 21.4241 8.71502 21.6676 8.18362 22.1223C7.96301 22.3111 7.78282 22.5488 7.59455 22.7729C7.50356 22.8812 7.41554 22.926 7.28589 22.851C7.01128 22.6922 6.73596 22.5345 6.42188 22.3539C6.61717 22.102 6.79587 21.8614 6.98592 21.6302C7.10045 21.4908 7.21915 21.3487 7.35998 21.2385C7.58301 21.064 7.81189 20.886 8.06427 20.7626C8.40641 20.5954 8.76884 20.4656 9.13091 20.3448C9.32925 20.2785 9.54448 20.2326 9.75253 20.2309C10.8776 20.2218 12.0029 20.2294 13.1281 20.2317C13.1544 20.2317 13.1807 20.2369 13.2358 20.2427C13.2358 20.3139 13.2358 20.3859 13.2358 20.4579C13.2358 22.8203 13.2343 25.1828 13.2367 27.5452C13.2377 28.6473 13.6048 29.622 14.289 30.4792C14.8983 31.2427 15.6712 31.776 16.6043 32.0636C16.9484 32.1696 17.2984 32.266 17.6686 32.252C17.9406 32.2417 18.2144 32.2715 18.486 32.2569C18.7012 32.2454 18.9212 32.2165 19.1267 32.1544C19.4435 32.0586 19.7629 31.9539 20.0569 31.805C20.38 31.6413 20.6756 31.4233 20.9829 31.2286C21.3036 31.0255 21.551 30.7461 21.7814 30.4508C22.1282 30.0064 22.4022 29.5227 22.58 28.9844C22.7513 28.4657 22.829 27.9332 22.8298 27.3903C22.8336 25.0759 22.8319 22.7614 22.8323 20.447C22.8324 20.2306 22.8327 20.2302 23.049 20.2301C23.6783 20.2299 24.3076 20.2301 24.9369 20.2301C24.995 20.2301 25.0532 20.2301 25.1398 20.2301C25.1398 20.4315 25.1398 20.6211 25.1398 20.8107C25.1397 20.9227 25.144 21.0349 25.1383 21.1466C25.1288 21.3341 25.0663 21.3908 24.8833 21.3906C24.6646 21.3904 24.446 21.3904 24.2273 21.3905C23.9919 21.3906 23.9917 21.3907 23.9917 21.6196C23.9916 23.63 23.9962 25.6405 23.9895 27.651C23.9867 28.4898 23.781 29.2843 23.4244 30.0439C23.1184 30.6955 22.7073 31.2689 22.1962 31.7721C21.3951 32.5607 20.435 33.0635 19.348 33.325C18.7698 33.4641 18.1744 33.5008 17.5868 33.453C16.4198 33.358 15.3501 32.9723 14.415 32.2508C13.6596 31.6679 13.0556 30.9566 12.6431 30.0943C12.3324 29.4449 12.0997 28.7625 12.0862 28.0385C12.0564 26.4455 12.0587 24.8519 12.048 23.2425Z" fill="#005589"/>
<path d="M35.4015 17.4692C35.7596 16.5627 36.1199 15.6702 36.4591 14.7698C36.5266 14.5908 36.6172 14.5585 36.7832 14.5639C37.1175 14.5746 37.4524 14.5671 37.8125 14.5671C36.073 18.973 34.3428 23.3553 32.6127 27.7377C32.5988 27.7425 32.5849 27.7473 32.571 27.7522C30.8396 23.3693 29.1081 18.9864 27.3672 14.5794C27.4488 14.5742 27.5042 14.5678 27.5597 14.5676C27.8424 14.5666 28.1255 14.5774 28.4075 14.5632C28.5748 14.5548 28.6626 14.6197 28.7198 14.7678C28.9013 15.2374 29.0887 15.7048 29.2733 16.1732C29.6076 17.0211 29.9414 17.8692 30.2755 18.7171C30.6991 19.7919 31.1224 20.8667 31.5464 21.9413C31.8887 22.8085 32.2319 23.6754 32.5868 24.573C32.6845 24.3311 32.7729 24.1151 32.8591 23.8982C33.2496 22.9152 33.6412 21.9326 34.0293 20.9487C34.4776 19.8125 34.9225 18.6751 35.3691 17.5382C35.3769 17.5185 35.3872 17.4997 35.4015 17.4692Z" fill="#005589"/>
<path d="M37.7858 21.6425C37.7858 23.9619 37.7858 26.2653 37.7857 28.5688C37.7857 28.7901 37.7852 28.7905 37.57 28.7911C37.3674 28.7917 37.1648 28.7923 36.9622 28.7911C36.7163 28.7897 36.6259 28.7003 36.6257 28.4606C36.6254 27.9807 36.6222 27.5008 36.6278 27.021C36.6292 26.9022 36.5913 26.8627 36.4727 26.8638C35.9502 26.8685 35.4277 26.867 34.9051 26.8646C34.8198 26.8642 34.7747 26.8885 34.7415 26.9755C34.5432 27.4941 34.3362 28.0095 34.1334 28.5263C34.0486 28.7423 33.9874 28.7888 33.7564 28.7906C33.4899 28.7927 33.2232 28.7917 32.9567 28.7905C32.9048 28.7903 32.8529 28.7828 32.7578 28.7753C34.4281 24.5462 36.0888 20.3415 37.7495 16.1367C37.7616 16.138 37.7737 16.1393 37.7858 16.1406C37.7858 17.9693 37.7858 19.7979 37.7858 21.6425ZM36.6266 25.9497C36.6517 25.7935 36.5957 25.7318 36.4285 25.741C36.1742 25.7548 35.9186 25.7445 35.6635 25.7445C35.2146 25.7445 35.2145 25.7445 35.0607 26.1695C35.0572 26.1793 35.0573 26.1904 35.0531 26.2189C35.1145 26.2257 35.1753 26.238 35.2362 26.2383C35.6135 26.2402 35.9907 26.2394 36.368 26.2392C36.6262 26.2391 36.6262 26.2389 36.6266 25.9497ZM36.4352 22.7079C36.2656 23.1317 36.096 23.5555 35.916 24.0053C36.149 24.0053 36.3403 24.0099 36.531 24.0008C36.5637 23.9992 36.6206 23.9396 36.6209 23.9063C36.6266 23.3651 36.6249 22.8239 36.6249 22.2827C36.6167 22.2806 36.6086 22.2786 36.6004 22.2766C36.5465 22.4122 36.4926 22.5477 36.4352 22.7079ZM36.5934 24.6026C36.318 24.5986 36.0425 24.5926 35.7671 24.5929C35.7323 24.5929 35.6781 24.6175 35.6658 24.6453C35.6008 24.7925 35.5463 24.9443 35.4767 25.1242C35.7343 25.1242 35.9608 25.1242 36.1872 25.1242C36.6749 25.1242 36.6749 25.1242 36.5934 24.6026Z" fill="#005589"/>
<path d="M39.7745 26.2395C40.717 26.2395 41.6448 26.2394 42.5726 26.2394C42.8757 26.2395 43.0279 26.4945 42.8672 26.7559C42.8303 26.8158 42.7216 26.8621 42.6456 26.8627C41.6698 26.8697 40.694 26.8672 39.7183 26.8675C39.5093 26.8675 39.509 26.8682 39.5089 27.0763C39.5087 27.5402 39.5092 28.0041 39.5086 28.468C39.5083 28.6962 39.4348 28.7833 39.213 28.7902C38.9573 28.7983 38.7012 28.7909 38.4453 28.7926C38.3599 28.7932 38.3142 28.7623 38.321 28.6708C38.3241 28.6284 38.3209 28.5855 38.3209 28.5429C38.3209 23.9626 38.3209 19.3823 38.3209 14.802C38.3209 14.5681 38.3211 14.568 38.5524 14.5678C38.7977 14.5677 39.043 14.5719 39.2882 14.5665C39.4409 14.5631 39.497 14.6462 39.5076 14.7803C39.5114 14.828 39.5086 14.8763 39.5086 14.9242C39.5087 17.8782 39.5088 20.8322 39.5089 23.7862C39.5089 24.0074 39.5091 24.0077 39.7359 24.0077C40.6957 24.0079 41.6554 24.0077 42.6152 24.0079C42.7206 24.008 42.8574 23.985 42.8733 24.127C42.889 24.2673 42.8629 24.4147 42.8351 24.555C42.8306 24.5779 42.7227 24.5905 42.6625 24.5907C41.676 24.5928 40.6896 24.5954 39.7032 24.5889C39.5507 24.5879 39.4895 24.6278 39.5067 24.7841C39.5181 24.8882 39.5089 24.9946 39.5089 25.1142C39.5936 25.1184 39.6612 25.1247 39.7289 25.1247C40.6886 25.1254 41.6484 25.1255 42.6082 25.1248C42.7179 25.1247 42.8518 25.1228 42.8724 25.2466C42.8964 25.3917 42.8762 25.5482 42.8486 25.6947C42.8431 25.7238 42.7177 25.745 42.6476 25.7452C41.6771 25.7484 40.7067 25.7473 39.7362 25.7474C39.5091 25.7474 39.5091 25.7478 39.5089 25.9703C39.5088 26.0548 39.5088 26.1394 39.5088 26.2395C39.6011 26.2395 39.6805 26.2395 39.7745 26.2395Z" fill="#005589"/>
<path d="M18.2897 19.34C18.2897 18.3803 18.2896 17.4366 18.2898 16.4928C18.2898 16.2639 18.2901 16.2636 18.5262 16.2636C19.8165 16.2635 21.1068 16.267 22.397 16.2617C22.8591 16.2598 23.321 16.2365 23.783 16.2235C23.8459 16.2217 23.9088 16.2233 23.9906 16.2233C23.9906 16.5838 23.9962 16.9286 23.9876 17.273C23.9845 17.3984 23.8887 17.4264 23.7718 17.4258C23.02 17.4223 22.2682 17.4239 21.5164 17.4239C20.8926 17.4239 20.2688 17.4275 19.645 17.4213C19.5105 17.42 19.4748 17.4637 19.4751 17.5946C19.4786 19.674 19.479 21.7534 19.4744 23.8328C19.4741 23.9767 19.5173 24.0175 19.6557 24.0102C19.8577 23.9996 20.0607 24.0075 20.2634 24.0076C20.5591 24.0077 20.6603 24.1331 20.5958 24.4242C20.5723 24.5302 20.5274 24.6013 20.392 24.5953C20.1313 24.5839 19.8696 24.5947 19.6084 24.591C19.5144 24.5896 19.4717 24.6196 19.4764 24.7193C19.4823 24.8458 19.4778 24.9728 19.4778 25.1249C19.7488 25.1249 20.0029 25.1247 20.2571 25.125C20.5767 25.1254 20.7265 25.3829 20.5599 25.6632C20.5314 25.7111 20.4378 25.7408 20.3729 25.7432C20.1227 25.7524 19.8718 25.7513 19.6213 25.7455C19.5097 25.743 19.468 25.7827 19.476 25.8939C19.4836 25.9998 19.4776 26.1065 19.4776 26.2392C19.7436 26.2392 20.0022 26.2472 20.2602 26.2373C20.6296 26.223 20.6522 26.5061 20.5663 26.7482C20.5464 26.8043 20.438 26.8575 20.3674 26.8618C20.1336 26.876 19.8985 26.8664 19.6639 26.8677C19.607 26.868 19.5501 26.875 19.4775 26.88C19.4775 27.1759 19.4775 27.4575 19.4775 27.7391C19.4775 27.9844 19.478 28.2296 19.4774 28.4749C19.4769 28.6938 19.4063 28.7811 19.1923 28.7892C18.9315 28.799 18.6699 28.7903 18.4087 28.7923C18.3189 28.793 18.2844 28.7518 18.2896 28.6652C18.293 28.6068 18.2897 28.548 18.2897 28.4893C18.2897 25.4449 18.2897 22.4004 18.2897 19.34Z" fill="#005589"/>
<path d="M16.5949 23.5009C16.5949 21.5493 16.5954 19.6137 16.5944 17.6781C16.5942 17.3927 16.6258 17.4258 16.3346 17.4256C15.0016 17.4243 13.6685 17.4251 12.3354 17.4249C12.0887 17.4249 12.051 17.3864 12.0507 17.1365C12.0505 16.9072 12.0593 16.6775 12.0476 16.4488C12.04 16.2999 12.0915 16.2613 12.2364 16.2617C13.7614 16.2664 15.2865 16.2646 16.8115 16.2646C17.0781 16.2646 17.3448 16.2691 17.6113 16.2628C17.7246 16.2602 17.7605 16.3024 17.7564 16.4117C17.7499 16.5874 17.7549 16.7635 17.7549 16.9395C17.7549 20.8107 17.7549 24.6819 17.7548 28.5531C17.7548 28.7933 17.7545 28.7973 17.5094 28.7927C17.2659 28.7882 17.0226 28.7758 16.7793 28.7643C16.624 28.7569 16.5941 28.6524 16.5944 28.5216C16.5958 28.0364 16.5895 27.5511 16.5982 27.066C16.6008 26.9158 16.5633 26.8565 16.4042 26.865C16.1702 26.8774 15.9351 26.8696 15.7005 26.8675C15.5426 26.8661 15.4802 26.8025 15.4742 26.6458C15.4602 26.2741 15.4931 26.2403 15.8683 26.2403C16.1065 26.2403 16.3447 26.2403 16.5715 26.2403C16.5845 26.2097 16.588 26.2049 16.5885 26.1998C16.629 25.7481 16.629 25.7482 16.179 25.7481C16.0137 25.7481 15.8484 25.7489 15.6831 25.7474C15.5472 25.7462 15.4779 25.675 15.4747 25.5399C15.4732 25.4759 15.4725 25.4119 15.4746 25.3479C15.4798 25.1921 15.5431 25.1282 15.702 25.127C15.9894 25.1247 16.2768 25.1263 16.5912 25.1263C16.5912 24.9625 16.5968 24.8104 16.5857 24.6595C16.5838 24.6347 16.5092 24.5974 16.4674 24.5964C16.2169 24.5903 15.9662 24.5942 15.7156 24.5926C15.5222 24.5913 15.4743 24.5475 15.4749 24.3615C15.476 23.9622 15.4309 24.0129 15.8214 24.0089C16.024 24.0069 16.227 24.0007 16.4291 24.0112C16.5666 24.0183 16.6076 23.9657 16.5967 23.8366C16.5877 23.7307 16.5949 23.6235 16.5949 23.5009Z" fill="#005589"/>
<path d="M26.4177 14.5285C26.8393 14.5285 26.8393 14.5285 26.8393 14.9387C26.8393 19.4763 26.8393 24.0139 26.8393 28.5515C26.8392 28.7934 26.839 28.7937 26.5946 28.7939C26.3867 28.7941 26.1786 28.7975 25.9708 28.7924C25.7426 28.7869 25.6795 28.7193 25.6792 28.4951C25.6787 28.0099 25.6749 27.5246 25.6816 27.0395C25.6835 26.9055 25.6385 26.8619 25.5074 26.8663C25.2731 26.874 25.0383 26.8697 24.8037 26.8677C24.6044 26.8661 24.5354 26.8014 24.5316 26.6196C24.5259 26.3525 24.5975 26.2484 24.806 26.2426C25.0351 26.2363 25.2645 26.2414 25.4938 26.2398C25.5516 26.2394 25.6094 26.2325 25.6653 26.2287C25.7241 25.7483 25.7241 25.7483 25.265 25.7483C25.1104 25.7483 24.9557 25.7498 24.8011 25.7478C24.5971 25.7451 24.5335 25.6811 24.5316 25.4813C24.5313 25.4493 24.5312 25.4173 24.5316 25.3853C24.5341 25.1953 24.6015 25.1268 24.7892 25.1264C25.0764 25.1257 25.3637 25.1262 25.6767 25.1262C25.6767 24.9661 25.6838 24.819 25.6709 24.6737C25.6682 24.6436 25.592 24.5983 25.5487 24.5971C25.2876 24.5898 25.0263 24.5939 24.765 24.5931C24.5826 24.5925 24.5298 24.5212 24.5315 24.2819C24.5331 24.0694 24.5849 24.0092 24.7655 24.0086C25.0481 24.0078 25.3306 24.0067 25.6132 24.0048C25.6279 24.0047 25.6426 23.9958 25.679 23.9839C25.679 23.916 25.679 23.8433 25.679 23.7705C25.679 20.7899 25.679 17.8092 25.6791 14.8286C25.6791 14.5733 25.7107 14.5387 25.9702 14.5299C26.114 14.525 26.2581 14.5287 26.4177 14.5285Z" fill="#005589"/>
<path d="M13.267 14.5666C16.7603 14.5666 20.2376 14.5666 23.7149 14.5666C23.9677 14.5667 23.9903 14.5883 23.9911 14.8378C23.992 15.0885 23.9879 15.3392 23.9927 15.5898C23.9946 15.6911 23.9622 15.7408 23.8561 15.7303C23.8192 15.7267 23.7815 15.7302 23.7442 15.7302C19.9255 15.7302 16.1069 15.7302 12.2882 15.7302C12.0475 15.7301 12.0474 15.7299 12.0472 15.4887C12.0471 15.2647 12.0464 15.0407 12.0474 14.8167C12.0483 14.623 12.1017 14.5678 12.291 14.5671C12.611 14.5659 12.931 14.5667 13.267 14.5666Z" fill="#005589"/>
<path d="M34.1032 19.3384C34.0543 19.4626 34.0072 19.5745 33.9568 19.6942C33.9314 19.6959 33.9002 19.6999 33.869 19.6999C33.0382 19.7003 32.2074 19.6987 31.3766 19.7021C31.2675 19.7026 31.2037 19.677 31.1643 19.5643C31.0841 19.3346 30.9864 19.1111 30.8965 18.8847C30.804 18.6521 30.8851 18.5181 31.1307 18.4982C31.1731 18.4948 31.2159 18.4966 31.2585 18.4966C32.1638 18.4965 33.0692 18.4955 33.9746 18.4983C34.0463 18.4985 34.1216 18.5149 34.1887 18.5408C34.312 18.5884 34.3547 18.683 34.3068 18.8093C34.2412 18.9822 34.1725 19.1539 34.1032 19.3384Z" fill="#005589"/>
<path d="M40.8234 18.4934C41.4089 18.4934 41.9784 18.4933 42.5479 18.4935C42.8232 18.4936 42.9066 18.5772 42.9071 18.854C42.9074 19.0828 42.9059 19.3117 42.9073 19.5406C42.9078 19.6136 42.8935 19.6626 42.8038 19.6625C41.884 19.661 40.9641 19.6616 40.0271 19.6616C40.0271 19.3427 40.0165 19.0355 40.0313 18.7294C40.0396 18.5568 40.1245 18.5026 40.3285 18.4952C40.4879 18.4895 40.6478 18.4937 40.8234 18.4934Z" fill="#005589"/>
<path d="M41.2719 21.3992C40.9574 21.3991 40.6589 21.401 40.3604 21.3983C40.1114 21.3961 40.0258 21.3095 40.0243 21.0622C40.0226 20.7919 40.0239 20.5216 40.0239 20.2411C40.0953 20.2366 40.147 20.2305 40.1988 20.2304C41.041 20.2298 41.8832 20.2336 42.7254 20.2266C42.8762 20.2253 42.9169 20.2744 42.9104 20.4174C42.9001 20.6461 42.9086 20.8757 42.9073 21.1049C42.9062 21.3052 42.8127 21.3969 42.5992 21.3981C42.1621 21.4007 41.725 21.3991 41.2719 21.3992Z" fill="#005589"/>
<path d="M32.9472 21.3912C32.6387 21.3912 32.3456 21.3982 32.0532 21.3865C31.9805 21.3836 31.8698 21.3379 31.8456 21.282C31.7009 20.9482 31.5764 20.6056 31.4375 20.2461C32.2073 20.2461 32.957 20.2461 33.7367 20.2461C33.6447 20.4828 33.5597 20.7022 33.474 20.9214C33.4509 20.9804 33.417 21.0367 33.4032 21.0977C33.3489 21.3378 33.2027 21.433 32.9472 21.3912Z" fill="#005589"/>
<path d="M9.58934 25.7483C9.1682 25.7482 8.76305 25.7473 8.35791 25.7487C8.23767 25.7491 8.13301 25.7258 8.09161 25.5955C8.04022 25.4339 8.08542 25.2241 8.18848 25.1571C8.21965 25.1368 8.26315 25.1267 8.30103 25.1267C9.27656 25.1253 10.2521 25.1268 11.2276 25.125C11.3391 25.1248 11.4734 25.124 11.4942 25.243C11.5184 25.3816 11.4932 25.5343 11.4599 25.6739C11.4509 25.7117 11.3355 25.7443 11.2685 25.745C10.7142 25.7506 10.1597 25.7482 9.58934 25.7483Z" fill="#005589"/>
<path d="M11.1115 26.2394C11.1739 26.2396 11.2222 26.2361 11.2697 26.2405C11.4802 26.2598 11.5224 26.3323 11.5099 26.6472C11.5033 26.8129 11.4412 26.8668 11.2496 26.8669C10.2911 26.8674 9.33247 26.8675 8.3739 26.8668C8.14135 26.8666 8.0797 26.8041 8.07815 26.5758C8.07656 26.3425 8.1631 26.2412 8.38093 26.2407C9.28625 26.2384 10.1916 26.2395 11.1115 26.2394Z" fill="#005589"/>
<path d="M8.23575 24.5916C8.06513 24.4713 8.02665 24.2026 8.1517 24.0564C8.17634 24.0276 8.22934 24.0095 8.26931 24.0094C9.27119 24.0072 10.2731 24.0078 11.275 24.0083C11.4935 24.0085 11.5142 24.0296 11.5155 24.2458C11.5158 24.2885 11.5159 24.3311 11.5155 24.3737C11.5139 24.5566 11.4776 24.5924 11.2875 24.5925C10.3122 24.5928 9.33699 24.5926 8.36174 24.5926C8.32444 24.5926 8.28714 24.5928 8.23575 24.5916Z" fill="#005589"/>
<path d="M28.07 17.7624C28.4337 18.6801 28.7905 19.5873 29.1481 20.4943C29.5737 21.5737 29.9997 22.6529 30.4259 23.7321C30.8228 24.7373 31.2207 25.7422 31.6175 26.7474C31.8816 27.4164 32.1446 28.0859 32.4235 28.7942C32.3044 28.7942 32.2118 28.7942 32.1193 28.7942C31.8847 28.7941 31.65 28.7956 31.4154 28.7936C31.185 28.7915 31.1324 28.7523 31.0494 28.5419C30.8471 28.0294 30.6461 27.5162 30.4367 27.0066C30.4135 26.9501 30.3398 26.8759 30.2886 26.8752C29.7289 26.8666 29.1689 26.8709 28.6091 26.8725C28.5942 26.8726 28.5793 26.8812 28.5486 26.8907C28.5458 26.9489 28.5402 27.0108 28.5401 27.0728C28.5393 27.542 28.5377 28.0113 28.5405 28.4805C28.5418 28.6988 28.5301 28.749 28.267 28.784C28.0102 28.8181 27.7453 28.796 27.4843 28.7875C27.4486 28.7863 27.4044 28.726 27.3838 28.6835C27.367 28.6488 27.3794 28.5998 27.3794 28.5572C27.3793 24.4779 27.3793 20.3985 27.3793 16.3192C27.3793 16.2565 27.3793 16.1938 27.3793 16.1312C27.3924 16.1278 27.4055 16.1244 27.4186 16.1211C27.6335 16.6647 27.8485 17.2082 28.07 17.7624ZM29.7969 26.2422C29.8998 26.2422 30.0026 26.2422 30.1354 26.2422C30.0764 26.0916 30.0266 25.9867 29.9948 25.8766C29.9635 25.7682 29.8994 25.7437 29.7953 25.7455C29.4763 25.7511 29.1572 25.7449 28.8382 25.7481C28.4919 25.7516 28.5517 25.6991 28.5355 26.0561C28.5284 26.2109 28.5901 26.2466 28.7289 26.2441C29.0744 26.2379 29.4201 26.2421 29.7969 26.2422ZM28.9416 23.207C28.818 22.8951 28.6944 22.5833 28.5708 22.2714C28.5402 22.8237 28.5389 23.3691 28.5436 23.9144C28.5439 23.9456 28.593 24.0023 28.6209 24.0033C28.825 24.011 29.0295 24.0074 29.258 24.0074C29.1467 23.7295 29.047 23.4803 28.9416 23.207ZM28.9681 24.5926C28.9468 24.5926 28.9256 24.5926 28.9043 24.5926C28.5273 24.5926 28.5311 24.5926 28.5367 24.9786C28.5383 25.0884 28.5733 25.1299 28.6835 25.1283C28.9757 25.1238 29.2681 25.1276 29.5603 25.1258C29.5991 25.1255 29.6379 25.1118 29.673 25.105C29.673 25.0775 29.676 25.066 29.6726 25.0568C29.5019 24.5926 29.5018 24.5926 28.9681 24.5926Z" fill="#005589"/>
</svg>
