<svg width="190" height="190" viewBox="0 0 190 190" fill="none" xmlns="http://www.w3.org/2000/svg">
<rect width="190" height="190" fill="white"/>
<path d="M84.554 119.47C83.2409 121.168 81.6618 122.492 79.8416 123.526C77.936 124.609 75.9201 125.407 73.7161 125.579C72.316 125.688 70.8899 125.843 69.5056 125.694C66.6133 125.385 63.9361 124.388 61.5572 122.663C57.7336 119.891 55.4021 116.191 54.6705 111.521C54.5023 110.447 54.4357 109.347 54.4338 108.26C54.4161 98.5492 54.4237 88.8387 54.4232 79.1282C54.4232 78.0882 54.306 77.9742 53.2536 77.9733C48.6095 77.9691 43.9633 77.8804 39.322 77.9917C36.4373 78.0609 33.6746 78.8628 31.1578 80.3211C30.0395 80.969 28.928 81.6746 27.9559 82.5181C26.5541 83.7344 25.273 85.0916 24.2959 86.6982C24.1354 86.9621 23.9411 87.2054 23.7271 87.5083C22.5991 86.8525 21.5075 86.2428 20.4439 85.5875C20.0095 85.3199 19.941 84.7521 20.2271 84.3056C21.2647 82.6869 22.5086 81.2491 23.8648 79.8796C25.8263 77.8989 28.1237 76.4231 30.6216 75.2987C32.1884 74.5935 33.8953 74.1514 35.5801 73.7725C36.8461 73.4878 38.1756 73.4011 39.479 73.3823C45.5719 73.2945 51.6656 73.2587 57.759 73.2098C58.7801 73.2016 59.1106 73.546 59.1106 74.5763C59.1112 85.9756 59.1212 97.3749 59.1046 108.774C59.0997 112.145 60.3205 115.011 62.6036 117.421C64.4467 119.366 66.7677 120.536 69.3974 120.965C72.8003 121.519 75.9398 120.698 78.6889 118.647C81.426 116.605 83.0141 113.815 83.5211 110.433C83.6234 109.75 83.6595 109.051 83.6601 108.36C83.6696 97.1083 83.6681 85.8568 83.6701 74.6053C83.6703 73.3328 83.7181 73.25 85.0209 73.232C89.432 73.1712 93.8446 73.1881 98.2563 73.2218C99.3545 73.2301 99.5481 73.7393 99.526 74.4741C99.4919 75.6104 99.517 76.7485 99.517 77.9733C99.229 77.9733 98.9843 77.9733 98.7396 77.9733C95.6154 77.9734 92.4911 77.9722 89.3669 77.9742C88.48 77.9748 88.26 78.198 88.2598 79.1C88.2586 89.0849 88.2685 99.0699 88.2532 109.055C88.2484 112.188 87.4 115.099 85.7465 117.764C85.3891 118.34 84.9702 118.878 84.554 119.47Z" fill="#005589"/>
<path d="M47.6996 92.0084C47.6995 89.7286 47.6889 87.512 47.7077 85.2957C47.7116 84.8414 47.5982 84.6639 47.1095 84.6681C44.661 84.6894 42.209 84.5989 39.7644 84.6983C37.0067 84.8105 34.5067 85.7743 32.4033 87.5742C31.53 88.3214 30.8168 89.2624 30.0715 90.1496C29.7114 90.5783 29.3629 90.7557 28.8498 90.4588C27.7628 89.83 26.6729 89.206 25.4297 88.4911C26.2027 87.494 26.9101 86.5417 27.6624 85.6263C28.1157 85.0746 28.5856 84.5122 29.143 84.0759C30.0258 83.3851 30.9318 82.6806 31.9308 82.1922C33.2851 81.5302 34.7198 81.0165 36.1529 80.5382C36.938 80.2761 37.79 80.0941 38.6135 80.0875C43.0671 80.0516 47.5212 80.0816 51.9751 80.0906C52.0793 80.0908 52.1835 80.1112 52.4014 80.1342C52.4014 80.4162 52.4014 80.701 52.4014 80.9859C52.4016 90.3373 52.3956 99.6887 52.4049 109.04C52.4092 113.403 53.8621 117.261 56.5703 120.654C58.9824 123.676 62.0415 125.787 65.7351 126.925C67.0971 127.345 68.4825 127.726 69.9478 127.671C71.0247 127.63 72.1084 127.748 73.1835 127.69C74.0354 127.645 74.9061 127.53 75.7194 127.285C76.9735 126.906 78.238 126.491 79.4016 125.902C80.6804 125.253 81.8506 124.391 83.0672 123.62C84.3366 122.816 85.3157 121.71 86.2278 120.541C87.6007 118.782 88.6853 116.868 89.389 114.737C90.0672 112.684 90.3744 110.576 90.3779 108.427C90.3927 99.2656 90.386 90.1042 90.3877 80.9428C90.3878 80.0864 90.3893 80.0847 91.2455 80.0844C93.7364 80.0835 96.2273 80.0841 98.7182 80.0841C98.9484 80.0841 99.1786 80.0841 99.5214 80.0841C99.5214 80.8814 99.5216 81.6319 99.5213 82.3824C99.5212 82.8257 99.5381 83.2699 99.5156 83.7121C99.4779 84.4542 99.2306 84.6786 98.506 84.6779C97.6405 84.6772 96.775 84.677 95.9096 84.6774C94.9779 84.6779 94.9769 84.6783 94.9769 85.5842C94.9767 93.5424 94.9948 101.501 94.9683 109.459C94.9572 112.779 94.143 115.924 92.7312 118.931C91.5201 121.51 89.8928 123.78 87.8697 125.771C84.6988 128.893 80.8984 130.883 76.5954 131.918C74.3069 132.469 71.9502 132.614 69.6241 132.425C65.0047 132.049 60.7704 130.522 57.0691 127.666C54.0791 125.359 51.688 122.543 50.0552 119.13C48.8257 116.56 47.9045 113.858 47.8508 110.993C47.7328 104.687 47.7422 98.3788 47.6996 92.0084Z" fill="#005589"/>
<path d="M140.123 69.1503C141.54 65.5619 142.967 62.0292 144.309 58.465C144.576 57.7567 144.935 57.6288 145.592 57.6499C146.915 57.6925 148.241 57.6626 149.666 57.6626C142.781 75.1026 135.932 92.4494 129.084 109.796C129.029 109.815 128.974 109.834 128.919 109.854C122.065 92.5047 115.212 75.1557 108.32 57.7116C108.643 57.6909 108.863 57.6655 109.082 57.6647C110.201 57.6606 111.322 57.7035 112.438 57.6474C113.1 57.6141 113.448 57.8711 113.674 58.4573C114.393 60.3161 115.135 62.1661 115.865 64.0202C117.188 67.3765 118.51 70.7334 119.832 74.0899C121.509 78.3441 123.185 82.5987 124.863 86.8521C126.218 90.285 127.577 93.7164 128.981 97.2695C129.368 96.3121 129.718 95.4569 130.059 94.5982C131.605 90.7073 133.155 86.818 134.691 82.9233C136.466 78.4258 138.227 73.9234 139.995 69.4234C140.025 69.3452 140.066 69.2709 140.123 69.1503Z" fill="#005589"/>
<path d="M149.574 85.6726C149.574 94.8536 149.575 103.971 149.574 113.089C149.574 113.965 149.572 113.967 148.72 113.969C147.918 113.972 147.116 113.974 146.314 113.969C145.341 113.963 144.983 113.61 144.982 112.661C144.981 110.761 144.969 108.862 144.991 106.962C144.996 106.492 144.846 106.336 144.377 106.34C142.309 106.359 140.24 106.353 138.172 106.343C137.834 106.342 137.655 106.438 137.524 106.782C136.739 108.835 135.92 110.875 135.117 112.921C134.781 113.776 134.539 113.96 133.625 113.967C132.57 113.976 131.514 113.972 130.459 113.967C130.254 113.966 130.048 113.936 129.672 113.907C136.284 97.1664 142.857 80.5226 149.431 63.8789C149.479 63.8841 149.527 63.8892 149.574 63.8944C149.574 71.1327 149.574 78.371 149.574 85.6726ZM144.986 102.722C145.085 102.103 144.863 101.86 144.201 101.896C143.195 101.95 142.183 101.91 141.174 101.91C139.397 101.91 139.396 101.91 138.788 103.592C138.774 103.631 138.774 103.675 138.757 103.787C139 103.814 139.241 103.863 139.482 103.864C140.975 103.872 142.469 103.869 143.962 103.868C144.984 103.867 144.984 103.867 144.986 102.722ZM144.228 89.89C143.557 91.5674 142.886 93.2449 142.173 95.0252C143.095 95.0252 143.853 95.0435 144.607 95.0076C144.737 95.0014 144.962 94.7653 144.963 94.6336C144.986 92.4914 144.979 90.349 144.979 88.2066C144.947 88.1986 144.914 88.1906 144.882 88.1826C144.669 88.7192 144.456 89.2559 144.228 89.89ZM144.854 97.3898C143.764 97.3737 142.674 97.3499 141.584 97.3512C141.446 97.3513 141.231 97.4488 141.183 97.5587C140.925 98.1413 140.71 98.7422 140.434 99.4544C141.454 99.4544 142.35 99.4544 143.247 99.4544C145.177 99.4544 145.177 99.4544 144.854 97.3898Z" fill="#005589"/>
<path d="M157.444 103.862C161.175 103.862 164.847 103.862 168.52 103.862C169.719 103.862 170.322 104.872 169.685 105.906C169.54 106.143 169.109 106.327 168.808 106.329C164.946 106.357 161.083 106.347 157.221 106.348C156.394 106.348 156.393 106.351 156.392 107.175C156.392 109.011 156.394 110.847 156.391 112.683C156.39 113.587 156.099 113.931 155.221 113.959C154.209 113.991 153.195 113.961 152.182 113.968C151.844 113.971 151.663 113.848 151.69 113.486C151.703 113.318 151.69 113.149 151.69 112.98C151.69 94.8495 151.69 76.7192 151.69 58.5888C151.69 57.6631 151.691 57.6624 152.606 57.6619C153.577 57.6613 154.548 57.678 155.519 57.6566C156.123 57.6433 156.345 57.972 156.387 58.503C156.402 58.6918 156.391 58.8827 156.391 59.0727C156.392 70.7656 156.392 82.4585 156.392 94.1514C156.392 95.027 156.393 95.0281 157.291 95.0282C161.09 95.0287 164.889 95.0281 168.688 95.029C169.105 95.0291 169.647 94.9383 169.71 95.5004C169.772 96.0557 169.669 96.6392 169.559 97.1946C169.541 97.2851 169.113 97.335 168.875 97.3356C164.971 97.3441 161.066 97.3542 157.161 97.3285C156.558 97.3245 156.316 97.4826 156.384 98.1013C156.429 98.5135 156.392 98.9347 156.392 99.4081C156.728 99.4247 156.995 99.4493 157.263 99.4495C161.062 99.4521 164.861 99.4527 168.66 99.4498C169.095 99.4495 169.625 99.4419 169.706 99.932C169.801 100.507 169.721 101.126 169.612 101.706C169.59 101.821 169.094 101.905 168.816 101.906C164.975 101.918 161.134 101.914 157.292 101.914C156.393 101.914 156.393 101.916 156.392 102.797C156.392 103.131 156.392 103.466 156.392 103.862C156.757 103.862 157.072 103.862 157.444 103.862Z" fill="#005589"/>
<path d="M72.3931 76.5543C72.3931 72.7554 72.3929 69.0199 72.3934 65.2843C72.3935 64.378 72.3945 64.377 73.3292 64.3769C78.4366 64.3766 83.544 64.3904 88.6513 64.3693C90.4802 64.3618 92.3088 64.2696 94.1376 64.2182C94.3862 64.2112 94.6353 64.2173 94.9591 64.2173C94.9591 65.6445 94.9813 67.0093 94.9474 68.3726C94.9351 68.8687 94.5559 68.9795 94.093 68.9773C91.1173 68.9633 88.1415 68.9699 85.1657 68.9699C82.6964 68.97 80.227 68.9839 77.758 68.9594C77.2256 68.9541 77.0843 69.1275 77.0852 69.6456C77.0994 77.8765 77.1009 86.1075 77.0825 94.3383C77.0812 94.908 77.2524 95.0694 77.8001 95.0406C78.5999 94.9986 79.4036 95.0297 80.2055 95.0301C81.3761 95.0307 81.7769 95.527 81.5215 96.6794C81.4286 97.0987 81.2508 97.3802 80.7149 97.3567C79.6828 97.3113 78.6471 97.354 77.6132 97.3394C77.241 97.3342 77.0717 97.4528 77.0903 97.8473C77.1139 98.348 77.096 98.8506 77.096 99.4531C78.1687 99.4531 79.1747 99.452 80.1806 99.4533C81.446 99.455 82.0389 100.474 81.3794 101.584C81.2665 101.773 80.896 101.891 80.6393 101.9C79.6487 101.937 78.6557 101.932 77.6643 101.91C77.2224 101.9 77.0574 102.056 77.0889 102.497C77.1189 102.916 77.0954 103.339 77.0954 103.864C78.1481 103.864 79.1719 103.895 80.193 103.856C81.6554 103.8 81.7445 104.92 81.4046 105.878C81.3258 106.1 80.897 106.311 80.6172 106.328C79.692 106.384 78.7612 106.346 77.8326 106.351C77.6074 106.353 77.3822 106.38 77.095 106.4C77.095 107.571 77.095 108.686 77.095 109.801C77.095 110.772 77.0968 111.742 77.0944 112.713C77.0923 113.58 76.813 113.925 75.9661 113.957C74.9334 113.996 73.8982 113.962 72.8641 113.97C72.5087 113.972 72.3723 113.809 72.3926 113.467C72.4063 113.235 72.3932 113.003 72.3932 112.77C72.3931 100.719 72.3931 88.6686 72.3931 76.5543Z" fill="#005589"/>
<path d="M65.6823 93.0183C65.6823 85.2934 65.6842 77.6316 65.6802 69.9699C65.6796 68.84 65.8045 68.9712 64.652 68.9701C59.3753 68.9651 54.0986 68.9682 48.8219 68.9676C47.8453 68.9674 47.6959 68.8151 47.6949 67.8259C47.694 66.9183 47.729 66.009 47.6826 65.1038C47.6524 64.5144 47.8564 64.3615 48.43 64.3633C54.4665 64.382 60.5031 64.3747 66.5396 64.3747C67.5949 64.3747 68.6507 64.3924 69.7054 64.3677C70.1539 64.3572 70.296 64.5244 70.2799 64.9569C70.2541 65.6524 70.2738 66.3497 70.2738 67.0462C70.2738 82.3697 70.2739 97.6932 70.2736 113.017C70.2736 113.968 70.2722 113.983 69.3021 113.965C68.3384 113.947 67.3751 113.898 66.4122 113.853C65.7973 113.823 65.679 113.41 65.6805 112.892C65.686 110.971 65.6608 109.05 65.6952 107.13C65.7058 106.536 65.5571 106.301 64.9274 106.335C64.0013 106.384 63.0706 106.353 62.142 106.345C61.5169 106.339 61.2698 106.087 61.2464 105.467C61.1907 103.996 61.321 103.862 62.8063 103.862C63.7492 103.862 64.6921 103.862 65.5897 103.862C65.6412 103.741 65.6551 103.722 65.6569 103.702C65.8172 101.914 65.8171 101.914 64.036 101.914C63.3816 101.914 62.7273 101.917 62.073 101.911C61.5353 101.906 61.2608 101.624 61.2482 101.089C61.2422 100.836 61.2395 100.583 61.2479 100.33C61.2684 99.7127 61.519 99.4599 62.1478 99.4549C63.2854 99.4459 64.4231 99.4523 65.6677 99.4523C65.6677 98.8039 65.6898 98.2018 65.6458 97.6046C65.6385 97.5064 65.3429 97.3586 65.1776 97.3545C64.1861 97.3304 63.1938 97.346 62.2018 97.3395C61.436 97.3346 61.2466 97.1611 61.2488 96.4251C61.2535 94.8442 61.0749 95.045 62.6204 95.0293C63.4223 95.0212 64.2261 94.9967 65.026 95.0383C65.5701 95.0666 65.7327 94.8584 65.6892 94.3472C65.6536 93.9281 65.6822 93.5036 65.6823 93.0183Z" fill="#005589"/>
<path d="M104.577 57.5006C106.245 57.5006 106.245 57.5006 106.245 59.1242C106.245 77.0856 106.245 95.047 106.245 113.008C106.245 113.966 106.244 113.967 105.277 113.968C104.454 113.969 103.63 113.982 102.808 113.962C101.904 113.94 101.654 113.673 101.653 112.785C101.652 110.865 101.636 108.944 101.663 107.023C101.67 106.493 101.492 106.32 100.973 106.338C100.046 106.368 99.1163 106.351 98.1877 106.343C97.3988 106.337 97.1259 106.081 97.1106 105.361C97.0881 104.304 97.3718 103.892 98.1968 103.869C99.1037 103.844 100.012 103.864 100.919 103.858C101.148 103.857 101.377 103.829 101.599 103.814C101.831 101.913 101.831 101.913 100.014 101.912C99.4017 101.912 98.7896 101.918 98.1776 101.91C97.3699 101.9 97.1184 101.646 97.1107 100.856C97.1095 100.729 97.1091 100.602 97.1108 100.476C97.1208 99.7236 97.3876 99.4525 98.1303 99.4507C99.2673 99.448 100.404 99.45 101.643 99.45C101.643 98.8161 101.671 98.2339 101.62 97.6587C101.61 97.5396 101.308 97.3604 101.137 97.3556C100.103 97.3268 99.0688 97.3431 98.0346 97.3396C97.3128 97.3372 97.1037 97.0551 97.1105 96.108C97.1165 95.2669 97.3218 95.0283 98.0366 95.0261C99.1551 95.0228 100.274 95.0186 101.392 95.011C101.45 95.0106 101.509 94.9753 101.653 94.9282C101.653 94.6596 101.653 94.3716 101.653 94.0836C101.653 82.2852 101.653 70.4868 101.653 58.6884C101.653 57.678 101.778 57.5411 102.805 57.5062C103.374 57.4869 103.945 57.5014 104.577 57.5006Z" fill="#005589"/>
<path d="M52.5248 57.6611C66.3525 57.6611 80.1169 57.661 93.8813 57.6611C94.8818 57.6611 94.9714 57.747 94.9747 58.7346C94.9779 59.7268 94.962 60.7193 94.9808 61.7111C94.9884 62.1122 94.8601 62.3086 94.4403 62.2674C94.294 62.2531 94.145 62.2667 93.9972 62.2667C78.8817 62.2668 63.7662 62.2669 48.6507 62.2666C47.6977 62.2666 47.6972 62.2656 47.6966 61.3109C47.6961 60.4243 47.6935 59.5376 47.6975 58.6509C47.701 57.8841 47.9122 57.6655 48.6615 57.6627C49.9281 57.658 51.1948 57.6612 52.5248 57.6611Z" fill="#005589"/>
<path d="M134.981 76.5413C134.787 77.0326 134.601 77.4755 134.401 77.9494C134.301 77.9563 134.177 77.9722 134.054 77.9723C130.765 77.9737 127.476 77.9672 124.188 77.981C123.756 77.9828 123.503 77.8814 123.348 77.4354C123.03 76.5262 122.644 75.6412 122.288 74.7454C121.922 73.8246 122.242 73.2943 123.215 73.2154C123.382 73.2018 123.552 73.2089 123.72 73.2089C127.304 73.2085 130.888 73.2047 134.472 73.2156C134.755 73.2165 135.054 73.2816 135.319 73.3841C135.807 73.5724 135.976 73.9468 135.787 74.4467C135.527 75.1311 135.255 75.8109 134.981 76.5413Z" fill="#005589"/>
<path d="M161.581 73.2081C163.898 73.208 166.153 73.2073 168.407 73.2081C169.497 73.2085 169.827 73.5398 169.828 74.6352C169.83 75.5411 169.824 76.4471 169.829 77.353C169.831 77.6422 169.775 77.8361 169.42 77.8356C165.779 77.8298 162.138 77.832 158.429 77.832C158.429 76.5699 158.387 75.3537 158.445 74.1422C158.478 73.4589 158.814 73.2443 159.621 73.2152C160.253 73.1925 160.885 73.209 161.581 73.2081Z" fill="#005589"/>
<path d="M163.356 84.7118C162.111 84.7115 160.929 84.7189 159.748 84.7085C158.762 84.6999 158.424 84.357 158.417 83.3779C158.411 82.308 158.416 81.238 158.416 80.128C158.699 80.11 158.903 80.0857 159.108 80.0856C162.442 80.0832 165.776 80.0982 169.109 80.0704C169.706 80.0654 169.867 80.2598 169.842 80.8258C169.801 81.7312 169.834 82.6398 169.829 83.5471C169.825 84.3399 169.455 84.7027 168.61 84.7077C166.88 84.7179 165.149 84.7114 163.356 84.7118Z" fill="#005589"/>
<path d="M130.413 84.6733C129.192 84.6735 128.032 84.7009 126.875 84.6546C126.587 84.6431 126.149 84.4623 126.053 84.241C125.48 82.9197 124.987 81.5637 124.438 80.1406C127.484 80.1406 130.452 80.1406 133.539 80.1406C133.174 81.0775 132.838 81.946 132.499 82.8135C132.407 83.0473 132.273 83.2701 132.219 83.5114C132.004 84.4619 131.425 84.8389 130.413 84.6733Z" fill="#005589"/>
<path d="M37.9581 101.912C36.2911 101.912 34.6874 101.908 33.0837 101.914C32.6078 101.916 32.1935 101.823 32.0296 101.308C31.8262 100.668 32.0051 99.8378 32.413 99.5722C32.5364 99.4919 32.7086 99.4521 32.8586 99.4519C36.7201 99.4466 40.5816 99.4524 44.4431 99.4454C44.8845 99.4446 45.4158 99.4415 45.4981 99.9124C45.5939 100.461 45.4942 101.066 45.3625 101.618C45.3268 101.768 44.8699 101.897 44.6049 101.899C42.4106 101.922 40.216 101.912 37.9581 101.912Z" fill="#005589"/>
<path d="M43.9913 103.864C44.2386 103.864 44.4296 103.851 44.6178 103.868C45.4511 103.945 45.6181 104.232 45.5683 105.478C45.5422 106.134 45.2966 106.347 44.5383 106.348C40.7439 106.35 36.9495 106.35 33.1551 106.347C32.2347 106.346 31.9906 106.099 31.9845 105.195C31.9782 104.272 32.3207 103.871 33.183 103.869C36.7665 103.86 40.3501 103.864 43.9913 103.864Z" fill="#005589"/>
<path d="M32.5927 97.3383C31.9173 96.862 31.765 95.7984 32.26 95.2198C32.3575 95.1058 32.5673 95.0341 32.7255 95.0337C36.6913 95.0247 40.6571 95.0272 44.6229 95.0294C45.4879 95.0299 45.5698 95.1137 45.5751 95.9694C45.5761 96.1382 45.5767 96.307 45.5752 96.4757C45.5686 97.1998 45.4251 97.3414 44.6724 97.3417C40.8121 97.3431 36.9517 97.3422 33.0914 97.3421C32.9437 97.3421 32.7961 97.343 32.5927 97.3383Z" fill="#005589"/>
<path d="M111.102 70.3053C112.542 73.9379 113.955 77.529 115.37 81.1191C117.055 85.3917 118.741 89.6637 120.428 93.9354C121.999 97.9143 123.574 101.892 125.145 105.871C126.19 108.519 127.231 111.169 128.335 113.973C127.864 113.973 127.497 113.973 127.131 113.973C126.202 113.973 125.273 113.979 124.345 113.97C123.433 113.962 123.225 113.807 122.896 112.974C122.095 110.945 121.3 108.914 120.471 106.897C120.379 106.673 120.087 106.38 119.885 106.377C117.669 106.343 115.453 106.36 113.236 106.366C113.177 106.367 113.118 106.401 112.997 106.438C112.986 106.669 112.964 106.914 112.963 107.159C112.96 109.016 112.954 110.874 112.965 112.731C112.97 113.595 112.924 113.794 111.882 113.932C110.866 114.067 109.817 113.98 108.784 113.946C108.643 113.942 108.468 113.703 108.387 113.535C108.32 113.397 108.369 113.204 108.369 113.035C108.369 96.8874 108.369 80.7401 108.368 64.5928C108.368 64.3447 108.368 64.0965 108.368 63.8484C108.42 63.8351 108.472 63.8219 108.524 63.8086C109.375 65.9602 110.226 68.1118 111.102 70.3053ZM117.938 103.871C118.345 103.871 118.753 103.871 119.278 103.871C119.045 103.275 118.847 102.86 118.721 102.424C118.598 101.995 118.344 101.898 117.932 101.905C116.669 101.927 115.406 101.903 114.143 101.916C112.773 101.929 113.009 101.722 112.945 103.135C112.917 103.748 113.161 103.889 113.711 103.879C115.078 103.854 116.447 103.871 117.938 103.871ZM114.553 91.8568C114.064 90.6224 113.574 89.388 113.085 88.1535C112.964 90.3396 112.958 92.4984 112.977 94.657C112.978 94.7807 113.173 95.0049 113.283 95.009C114.091 95.0394 114.9 95.0254 115.805 95.0254C115.365 93.9252 114.97 92.9389 114.553 91.8568ZM114.658 97.3418C114.573 97.3418 114.489 97.3418 114.405 97.3418C112.913 97.3418 112.928 97.3416 112.95 98.8694C112.956 99.3043 113.095 99.4686 113.531 99.462C114.688 99.4445 115.845 99.4594 117.002 99.4522C117.155 99.4512 117.309 99.3968 117.448 99.3699C117.448 99.261 117.46 99.2155 117.446 99.1792C116.77 97.3417 116.77 97.3418 114.658 97.3418Z" fill="#005589"/>
</svg>
